# Blender v2.76 (sub 0) OBJ File: 'connected_chest_open.blend'
# www.blender.org
mtllib connected_chest_open.mtl
o Top_Cube.002_None_Top_Cube.002_None_bottom_Top_Cube.002_Non.004
v 0.490000 0.408471 0.720970
v -1.510000 0.408471 0.720970
v -1.510000 0.187501 0.499999
v 0.490000 0.187501 0.499999
v -1.510000 -0.500000 0.500000
v 0.490000 -0.500000 0.500000
vt 1.000000 1.000000
vt 0.000000 1.000000
vt 0.000000 0.687500
vt 1.000000 0.687500
vt 0.000000 0.000000
vt 1.000000 0.000000
vn 0.000000 -0.707100 0.707100
vn 0.000000 0.000000 1.000000
usemtl None
s 1
f 1/1/1 2/2/1 3/3/1 4/4/1
f 4/4/2 3/3/2 5/5/2 6/6/2
o Top_Cube.002_None_Top_Cube.002_None_bottom_Top_Cube.002_Non.003
v -1.510000 1.115578 0.013863
v 0.490000 1.115578 0.013863
v 0.490000 0.894607 -0.207108
v -1.510000 0.894607 -0.207108
v -1.510000 0.187500 -0.500000
v 0.490000 0.187500 -0.500000
v 0.490000 -0.500000 -0.500000
v -1.510000 -0.500000 -0.500000
vt 1.000000 1.000000
vt 0.000000 1.000000
vt 0.000000 0.687500
vt 1.000000 0.687500
vt 0.000000 0.000000
vt 1.000000 0.000000
vn 0.000000 0.707100 -0.707100
vn 0.000000 0.000000 -1.000000
usemtl None
s 1
f 7/7/3 8/8/3 9/9/3 10/10/3
f 11/10/4 12/9/4 13/11/4 14/12/4
o Top_Cube.002_None_Top_Cube.002_None_bottom_Top_Cube.002_Non.002
v -1.510000 -0.500000 0.500000
v -1.510000 -0.500000 -0.500000
v 0.490000 -0.500000 -0.500000
v 0.490000 -0.500000 0.500000
vt 1.000000 0.000000
vt 1.000000 1.000000
vt 0.000000 1.000000
vt 0.000000 0.000000
vn 0.000000 -1.000000 -0.000000
usemtl None
s 1
f 15/13/5 16/14/5 17/15/5 18/16/5
o Top_Cube.002_None_Top_Cube.002_None_bottom_Top_Cube.002_Non.001
v 0.490000 0.408471 0.720970
v 0.490000 1.115578 0.013863
v -1.510000 1.115578 0.013863
v -1.510000 0.408471 0.720970
vt 0.000000 1.000000
vt 0.000000 0.000000
vt 1.000000 0.000000
vt 1.000000 1.000000
vn 0.000000 0.707100 0.707100
usemtl None
s 1
f 19/17/6 20/18/6 21/19/6 22/20/6
o Top_Cube.002_None_Top_Cube.002_None_bottom_Top_Cube.002_Non.000
v -1.510000 0.408471 0.720970
v -1.510000 1.115578 0.013863
v -1.510000 0.894607 -0.207108
v -1.510000 0.187501 0.499999
v 0.490000 1.115578 0.013863
v 0.490000 0.408471 0.720970
v 0.490000 0.187501 0.499999
v 0.490000 0.894607 -0.207108
v -1.510000 0.187500 -0.500000
v -1.510000 -0.500000 -0.500000
v -1.510000 -0.500000 0.500000
v 0.490000 0.187500 -0.500000
v 0.490000 -0.500000 0.500000
v 0.490000 -0.500000 -0.500000
vt 0.000000 1.000000
vt 1.000000 1.000000
vt 1.000000 0.687500
vt 0.000000 0.687500
vt 1.000000 0.000000
vt 0.000000 0.000000
vn -1.000000 0.000000 0.000000
vn 1.000000 -0.000000 0.000000
usemtl None
s 1
f 23/21/7 24/22/7 25/23/7 26/24/7
f 27/22/8 28/21/8 29/24/8 30/23/8
f 26/24/7 31/23/7 32/25/7 33/26/7
f 34/23/8 29/24/8 35/26/8 36/25/8
o Top_Cube.002_None_Top_Cube.002_None_bottom_Top_Cube.002_None_To
v -1.510000 0.187501 0.499999
v -1.510000 0.894607 -0.207108
v 0.490000 0.894607 -0.207108
v 0.490000 0.187501 0.499999
v 0.490000 0.187500 -0.500000
v -1.510000 0.187500 -0.500000
vt 1.000000 0.500000
vt 1.000000 1.000000
vt 0.000000 1.000000
vt 0.000000 0.500000
vt 0.000000 0.000000
vt 1.000000 0.000000
vn 0.000000 -0.707100 -0.707100
vn 0.000000 1.000000 -0.000000
usemtl None
s 1
f 37/27/9 38/28/9 39/29/9 40/30/9
f 40/30/10 41/31/10 42/32/10 37/27/10
